<?xml version="1.0" encoding="UTF-8" standalone="no"?>
<svg
   xmlns:dc="http://purl.org/dc/elements/1.1/"
   xmlns:cc="http://creativecommons.org/ns#"
   xmlns:rdf="http://www.w3.org/1999/02/22-rdf-syntax-ns#"
   xmlns:svg="http://www.w3.org/2000/svg"
   xmlns="http://www.w3.org/2000/svg"
   viewBox="0 0 234.21333 90.720001"
   height="90.720001"
   width="234.21333"
   xml:space="preserve"
   id="svg2"
   version="1.1"><metadata
     id="metadata8"><rdf:RDF><cc:Work
         rdf:about=""><dc:format>image/svg+xml</dc:format><dc:type
           rdf:resource="http://purl.org/dc/dcmitype/StillImage" /></cc:Work></rdf:RDF></metadata><defs
     id="defs6" /><g
     transform="matrix(1.3333333,0,0,-1.3333333,0,90.72)"
     id="g10"><g
       transform="scale(0.1)"
       id="g12"><path
         id="path14"
         style="fill:#1c294d;fill-opacity:1;fill-rule:nonzero;stroke:none"
         d="M 378.801,32.0898 V 271.16 c 0,36.574 -10.008,65.883 -30.016,87.973 -20.015,22.074 -47.609,33.121 -82.793,33.121 -35.187,0 -63.488,-11.227 -84.871,-33.637 C 159.73,336.191 149.035,307.031 149.035,271.16 V 32.0898 c 0,-6.2109 -2.246,-11.2304 -6.722,-15.0117 -4.5,-3.8086 -9.833,-5.6914 -16.043,-5.6914 H 21.7383 c -6.211,0 -11.3828,2.0703 -15.52346,6.211 C 2.07422,21.7383 0,26.9141 0,33.1133 V 658.621 c 0,6.211 2.07422,11.387 6.21484,15.527 4.14066,4.141 9.31246,6.207 15.52346,6.207 H 126.27 c 6.21,0 11.543,-1.906 16.043,-5.695 4.476,-3.797 6.722,-8.793 6.722,-15.008 V 480.688 c 0,0 58.426,49.218 163.528,49.218 65.546,0 117.988,-20.703 157.32,-62.101 39.328,-41.395 58.992,-93.5 58.992,-156.282 V 32.0898 c 0,-6.2109 -2.25,-11.2304 -6.727,-15.0117 -4.5,-3.8086 -9.835,-5.6914 -16.043,-5.6914 H 401.57 c -6.207,0 -11.562,1.8828 -16.039,5.6914 -4.5,3.7813 -6.73,8.8008 -6.73,15.0117" /><path
         id="path16"
         style="fill:#1c294d;fill-opacity:1;fill-rule:nonzero;stroke:none"
         d="M 1198.43,32.0898 V 271.16 c 0,36.574 -10.01,65.883 -30.01,87.973 -20.03,22.074 -47.62,33.121 -82.8,33.121 -35.19,0 -63.49,-11.227 -84.86,-33.637 -21.401,-22.426 -32.096,-51.586 -32.096,-87.457 V 32.0898 c 0,-6.2109 -2.246,-11.2304 -6.726,-15.0117 -4.493,-3.8086 -9.825,-5.6914 -16.047,-5.6914 H 841.363 c -6.211,0 -11.379,2.0703 -15.519,6.211 -4.141,4.1406 -6.215,9.3164 -6.215,15.5156 V 494.031 c 0,6.211 2.074,11.387 6.215,15.528 4.14,4.14 9.308,6.207 15.519,6.207 h 104.528 c 6.222,0 11.554,-1.907 16.047,-5.688 4.48,-3.805 6.726,-8.801 6.726,-15.012 v -14.378 c 0,0 58.416,49.218 163.526,49.218 65.55,0 117.99,-20.703 157.32,-62.101 39.33,-41.395 58.99,-93.5 58.99,-156.282 V 32.0898 c 0,-6.2109 -2.25,-11.2304 -6.73,-15.0117 -4.49,-3.8086 -9.82,-5.6914 -16.03,-5.6914 h -104.55 c -6.2,0 -11.55,1.8828 -16.03,5.6914 -4.49,3.7813 -6.73,8.8008 -6.73,15.0117" /><path
         id="path18"
         style="fill:#1c294d;fill-opacity:1;fill-rule:nonzero;stroke:none"
         d="M 727.078,11.3867 H 622.547 c -6.211,0 -11.563,2.2344 -16.039,6.7266 -4.496,4.4844 -6.735,9.8359 -6.735,16.0351 V 492.648 c 0,6.207 2.239,11.543 6.735,16.043 4.476,4.477 9.828,6.727 16.039,6.727 h 104.531 c 6.211,0 11.387,-2.25 15.527,-6.727 4.141,-4.5 6.208,-9.836 6.208,-16.043 V 34.1484 c 0,-6.1992 -2.067,-11.5507 -6.208,-16.0351 -4.14,-4.4922 -9.316,-6.7266 -15.527,-6.7266" /><path
         id="path20"
         style="fill:#1c294d;fill-opacity:1;fill-rule:nonzero;stroke:none"
         d="m 1412.53,161.453 v 496.133 c 0,6.891 2.23,12.422 6.72,16.559 4.48,4.14 9.84,6.21 16.06,6.21 h 105.55 c 5.52,0 10.52,-2.07 15.01,-6.21 4.48,-4.137 6.73,-9.668 6.73,-16.559 V 515.418 h 94.47 c 6.2,0 11.72,-2.25 16.57,-6.727 4.81,-4.5 7.23,-9.836 7.23,-16.043 v -79.691 c 0,-5.531 -2.42,-10.707 -7.23,-15.527 -4.85,-4.84 -10.37,-7.246 -16.57,-7.246 H 1562.6 V 196.641 c 0,-22.082 5.18,-37.258 15.53,-45.539 10.34,-8.27 22.07,-12.411 35.18,-12.411 13.8,0 28.98,4.813 45.54,14.481 18.63,11.73 32.76,10.351 42.44,-4.141 l 36.22,-57.9568 c 8.28,-13.1054 7.24,-25.5273 -3.1,-37.2578 -34.51,-35.8789 -84.19,-53.82030625 -149.05,-53.82030625 -48.3,0 -89.18,13.46090625 -122.63,40.36330625 -33.48,26.914 -50.2,67.2776 -50.2,121.0936" /><path
         id="path22"
         style="fill:#1c294d;fill-opacity:1;fill-rule:nonzero;stroke:none"
         d="m 1728.98,487.441 c 1.63,0 2.46,0.36 3.03,0.938 0.58,0.578 0.94,1.41 0.94,2.312 0,0.903 -0.36,1.735 -0.94,2.309 -0.57,0.582 -1.4,0.945 -3.03,0.945 h -5.05 v -6.504 z m -5.05,-3.429 v -11.918 h -3.61 v 25.277 h 8.84 c 2.32,0 3.75,-0.543 4.92,-1.48 1.51,-1.227 2.49,-3.106 2.49,-5.2 0,-2.093 -0.98,-3.972 -2.49,-5.199 -0.8,-0.648 -1.7,-1.125 -2.96,-1.332 l 9.06,-12.066 h -4.38 l -8.99,11.918 h -2.88" /><path
         id="path24"
         style="fill:#1c294d;fill-opacity:1;fill-rule:nonzero;stroke:none"
         d="m 1753.9,484.73 c 0,13.477 -10.96,24.434 -24.42,24.434 -13.48,0 -24.44,-10.957 -24.44,-24.434 0,-13.472 10.96,-24.429 24.44,-24.429 13.46,0 24.42,10.957 24.42,24.429 z m -51.61,0 c 0,14.985 12.2,27.172 27.19,27.172 14.98,0 27.16,-12.187 27.16,-27.172 0,-14.98 -12.18,-27.171 -27.16,-27.171 -14.99,0 -27.19,12.191 -27.19,27.171" /></g></g></svg>